<?xml version="1.0" encoding="utf-8"?>
<!-- Generator: Adobe Illustrator 21.0.0, SVG Export Plug-In . SVG Version: 6.00 Build 0)  -->
<svg version="1.1" id="Layer_1" xmlns="http://www.w3.org/2000/svg" xmlns:xlink="http://www.w3.org/1999/xlink" x="0px" y="0px"
	 viewBox="0 0 792 612" style="enable-background:new 0 0 792 612;" xml:space="preserve">
<style type="text/css">
	.st0{fill:none;stroke:#000000;stroke-width:0.2174;}
	.st1{font-family:'BrailleNormal';}
	.st2{font-size:36px;}
	.st3{font-family:'Avenir-Roman';}
</style>
<g>
	<g>
		<circle class="st0" cx="171" cy="38.8" r="3.3"/>
		<circle class="st0" cx="171" cy="52.3" r="3.3"/>
	</g>
	<g>
		<circle cx="184.5" cy="38.8" r="3.3"/>
		<circle cx="184.5" cy="52.3" r="3.3"/>
	</g>
	<g>
		<circle cx="171" cy="65.6" r="3.3"/>
		<circle cx="184.5" cy="65.6" r="3.3"/>
	</g>
</g>
<g>
	<g>
		<circle class="st0" cx="172.2" cy="104.2" r="3.3"/>
		<circle class="st0" cx="172.2" cy="117.7" r="3.3"/>
	</g>
	<g>
		<circle cx="185.7" cy="104.2" r="3.3"/>
		<circle cx="185.7" cy="117.7" r="3.3"/>
	</g>
	<g>
		<circle cx="172.2" cy="130.9" r="3.3"/>
		<circle cx="185.7" cy="130.9" r="3.3"/>
	</g>
</g>
<g>
	<g>
		<circle class="st0" cx="590.9" cy="507.6" r="3.3"/>
		<circle class="st0" cx="590.9" cy="521" r="3.3"/>
	</g>
	<g>
		<circle cx="604.3" cy="507.6" r="3.3"/>
		<circle cx="604.3" cy="521" r="3.3"/>
	</g>
	<g>
		<circle cx="590.9" cy="534.3" r="3.3"/>
		<circle cx="604.3" cy="534.3" r="3.3"/>
	</g>
</g>
<g>
	<g>
		<circle class="st0" cx="707.2" cy="507.7" r="3.3"/>
		<circle class="st0" cx="707.2" cy="521.1" r="3.3"/>
	</g>
	<g>
		<circle cx="720.7" cy="507.7" r="3.3"/>
		<circle cx="720.7" cy="521.1" r="3.3"/>
	</g>
	<g>
		<circle cx="707.2" cy="534.4" r="3.3"/>
		<circle cx="720.7" cy="534.4" r="3.3"/>
	</g>
</g>
<g>
	<g>
		<circle class="st0" cx="305.3" cy="507.4" r="3.3"/>
		<circle class="st0" cx="305.3" cy="520.9" r="3.3"/>
	</g>
	<g>
		<circle cx="318.8" cy="507.4" r="3.3"/>
		<circle cx="318.8" cy="520.9" r="3.3"/>
	</g>
	<g>
		<circle cx="305.3" cy="534.2" r="3.3"/>
		<circle cx="318.8" cy="534.2" r="3.3"/>
	</g>
</g>
<g>
	<g>
		<circle class="st0" cx="167.8" cy="507.2" r="3.3"/>
		<circle class="st0" cx="167.8" cy="520.7" r="3.3"/>
	</g>
	<g>
		<circle cx="181.3" cy="507.2" r="3.3"/>
		<circle cx="181.3" cy="520.7" r="3.3"/>
	</g>
	<g>
		<circle cx="167.8" cy="534" r="3.3"/>
		<circle cx="181.3" cy="534" r="3.3"/>
	</g>
</g>
<g>
	<g>
		<circle class="st0" cx="167.8" cy="453.8" r="3.3"/>
		<circle class="st0" cx="167.8" cy="467.3" r="3.3"/>
	</g>
	<g>
		<circle cx="181.3" cy="453.8" r="3.3"/>
		<circle cx="181.3" cy="467.3" r="3.3"/>
	</g>
	<g>
		<circle cx="167.8" cy="480.5" r="3.3"/>
		<circle cx="181.3" cy="480.5" r="3.3"/>
	</g>
</g>
<g>
	<g>
		<circle class="st0" cx="587.5" cy="314" r="3.3"/>
		<circle class="st0" cx="587.5" cy="327.5" r="3.3"/>
	</g>
	<g>
		<circle cx="600.9" cy="314" r="3.3"/>
		<circle cx="600.9" cy="327.5" r="3.3"/>
	</g>
	<g>
		<circle cx="587.5" cy="340.7" r="3.3"/>
		<circle cx="600.9" cy="340.7" r="3.3"/>
	</g>
</g>
<g>
	<g>
		<circle class="st0" cx="707.1" cy="314.1" r="3.3"/>
		<circle class="st0" cx="707.1" cy="327.6" r="3.3"/>
	</g>
	<g>
		<circle cx="720.6" cy="314.1" r="3.3"/>
		<circle cx="720.6" cy="327.6" r="3.3"/>
	</g>
	<g>
		<circle cx="707.1" cy="340.8" r="3.3"/>
		<circle cx="720.6" cy="340.8" r="3.3"/>
	</g>
</g>
<g>
	<g>
		<circle class="st0" cx="461.6" cy="313.8" r="3.3"/>
		<circle class="st0" cx="461.6" cy="327.2" r="3.3"/>
	</g>
	<g>
		<circle cx="475" cy="313.8" r="3.3"/>
		<circle cx="475" cy="327.2" r="3.3"/>
	</g>
	<g>
		<circle cx="461.6" cy="340.5" r="3.3"/>
		<circle cx="475" cy="340.5" r="3.3"/>
	</g>
</g>
<g>
	<g>
		<circle class="st0" cx="306.9" cy="313.9" r="3.3"/>
		<circle class="st0" cx="306.9" cy="327.3" r="3.3"/>
	</g>
	<g>
		<circle cx="320.4" cy="313.9" r="3.3"/>
		<circle cx="320.4" cy="327.3" r="3.3"/>
	</g>
	<g>
		<circle cx="306.9" cy="340.6" r="3.3"/>
		<circle cx="320.4" cy="340.6" r="3.3"/>
	</g>
</g>
<g>
	<g>
		<circle class="st0" cx="171" cy="259" r="3.3"/>
		<circle class="st0" cx="171" cy="272.5" r="3.3"/>
	</g>
	<g>
		<circle cx="184.5" cy="259" r="3.3"/>
		<circle cx="184.5" cy="272.5" r="3.3"/>
	</g>
	<g>
		<circle cx="171" cy="285.7" r="3.3"/>
		<circle cx="184.5" cy="285.7" r="3.3"/>
	</g>
</g>
<g>
	<g>
		<circle class="st0" cx="168.8" cy="313.7" r="3.3"/>
		<circle class="st0" cx="168.8" cy="327.2" r="3.3"/>
	</g>
	<g>
		<circle cx="182.3" cy="313.7" r="3.3"/>
		<circle cx="182.3" cy="327.2" r="3.3"/>
	</g>
	<g>
		<circle cx="168.8" cy="340.4" r="3.3"/>
		<circle cx="182.3" cy="340.4" r="3.3"/>
	</g>
</g>
<g>
	<g>
		<circle class="st0" cx="443.2" cy="106.9" r="3.3"/>
		<circle class="st0" cx="443.2" cy="120.4" r="3.3"/>
	</g>
	<g>
		<circle cx="456.7" cy="106.9" r="3.3"/>
		<circle cx="456.7" cy="120.4" r="3.3"/>
	</g>
	<g>
		<circle cx="443.2" cy="133.7" r="3.3"/>
		<circle cx="456.7" cy="133.7" r="3.3"/>
	</g>
</g>
<g>
	<g>
		<circle class="st0" cx="570.8" cy="107.1" r="3.3"/>
		<circle class="st0" cx="570.8" cy="120.6" r="3.3"/>
	</g>
	<g>
		<circle cx="584.3" cy="107.1" r="3.3"/>
		<circle cx="584.3" cy="120.6" r="3.3"/>
	</g>
	<g>
		<circle cx="570.8" cy="133.9" r="3.3"/>
		<circle cx="584.3" cy="133.9" r="3.3"/>
	</g>
</g>
<g>
	<g>
		<circle class="st0" cx="308.5" cy="107.2" r="3.3"/>
		<circle class="st0" cx="308.5" cy="120.7" r="3.3"/>
	</g>
	<g>
		<circle cx="322" cy="107.2" r="3.3"/>
		<circle cx="322" cy="120.7" r="3.3"/>
	</g>
	<g>
		<circle cx="308.5" cy="134" r="3.3"/>
		<circle cx="322" cy="134" r="3.3"/>
	</g>
</g>
<text transform="matrix(1 0 0 1 16.3296 68.8164)"><tspan x="0" y="0" class="st1 st2">Class </tspan><tspan x="158.8" y="0" class="st3 st2">  </tspan><tspan x="178.8" y="0" class="st1 st2">2</tspan></text>
<text transform="matrix(1 0 0 1 83.8854 134.2073)" class="st1 st2">lab  1</text>
<text transform="matrix(1 0 0 1 16.333 288.7004)"><tspan x="0" y="0" class="st1 st2">Class </tspan><tspan x="158.8" y="0" class="st3 st2">  </tspan><tspan x="178.8" y="0" class="st1 st2">3</tspan></text>
<text transform="matrix(1 0 0 1 12.9998 483.7795)"><tspan x="0" y="0" class="st1 st2">Class </tspan><tspan x="158.8" y="0" class="st3 st2">  </tspan><tspan x="178.8" y="0" class="st1 st2">4</tspan></text>
<text transform="matrix(1 0 0 1 80.5558 343.7047)" class="st1 st2">lab  2</text>
<text transform="matrix(1 0 0 1 77.2226 536.8206)" class="st1 st2">lab  2</text>
<text transform="matrix(1 0 0 1 375.8891 536.8203)" class="st1 st2">lab  5</text>
<text transform="matrix(1 0 0 1 375.113 343.7044)" class="st1 st2">lab  3</text>
<text transform="matrix(1 0 0 1 242.0682 136.8163)" class="st1 st2">p.  1</text>
<text transform="matrix(1 0 0 1 240.4464 343.7048)" class="st1 st2">p.  4</text>
<text transform="matrix(1 0 0 1 237.1134 536.8202)" class="st1 st2">p.  7</text>
<text transform="matrix(1 0 0 1 523.113 343.7041)" class="st1 st2">p.  5</text>
<text transform="matrix(1 0 0 1 522.4465 536.8202)" class="st1 st2">p.  8</text>
<text transform="matrix(1 0 0 1 643.1132 537.4514)" class="st1 st2">p.  9</text>
<text transform="matrix(1 0 0 1 641.7797 343.8677)" class="st1 st2">p.  6</text>
<text transform="matrix(1 0 0 1 376.7347 136.8164)" class="st1 st2">p.  2</text>
<text transform="matrix(1 0 0 1 504.0682 136.8162)" class="st1 st2">p.  3</text>
</svg>
